<?xml version="1.0" encoding="UTF-8"?>
<svg version="1.1" xmlns="http://www.w3.org/2000/svg" width="200" height="58">
<path d="M0 0 C18.15 0 36.3 0 55 0 C55 18.15 55 36.3 55 55 C36.85 55 18.7 55 0 55 C0 36.85 0 18.7 0 0 Z " fill="#FEF8F6" transform="translate(0,0)"/>
<path d="M0 0 C4.50226042 -0.68890847 8.51340968 -0.87803182 13 0 C16.90359441 3.03680249 19.31497439 6.8855363 22 11 C23.21214433 12.71770207 24.44351225 14.42054213 25.67553711 16.12402344 C26.93829161 17.87609836 28.18255132 19.64028458 29.42578125 21.40625 C33.44442615 27.06867433 37.73577028 32.52177494 42 38 C42.0248456 33.83740639 42.04292862 29.67485287 42.05493164 25.51220703 C42.0599392 24.09813687 42.06674718 22.68407184 42.07543945 21.27001953 C42.08766256 19.22947927 42.0932642 17.18900788 42.09765625 15.1484375 C42.10289307 13.92302246 42.10812988 12.69760742 42.11352539 11.43505859 C42.00646676 8.19567151 41.61478618 5.17816803 41 2 C40.01 1.67 39.02 1.34 38 1 C38 0.67 38 0.34 38 0 C43.28 0 48.56 0 54 0 C53.01 1.32 52.02 2.64 51 4 C50.53155946 6.57824502 50.53155946 6.57824502 50.56762695 9.41113281 C50.54783279 10.49195129 50.52803864 11.57276978 50.50764465 12.68634033 C50.50125473 13.84687927 50.49486481 15.00741821 50.48828125 16.203125 C50.47033005 17.39605164 50.45237885 18.58897827 50.43388367 19.8180542 C50.37969629 23.62866683 50.3458569 27.43915359 50.3125 31.25 C50.27933449 33.83335088 50.24484555 36.41668513 50.20898438 39 C50.12396478 45.33322047 50.05565042 51.66645706 50 58 C46.59980047 57.24866488 44.8021747 56.27526414 42.1875 53.9375 C41.56230469 53.38964844 40.93710938 52.84179688 40.29296875 52.27734375 C34.15234382 46.17856294 28.95206334 39.42822568 23.875 32.4375 C23.28074219 31.62603516 22.68648437 30.81457031 22.07421875 29.97851562 C18.6837612 25.34189652 15.3296885 20.68041119 12 16 C11.95049075 20.62644904 11.91422884 25.25274318 11.89013672 29.87939453 C11.88009113 31.45266405 11.86645219 33.02591496 11.84912109 34.59912109 C11.82480904 36.86300252 11.81350253 39.12663666 11.8046875 41.390625 C11.79436493 42.09181458 11.78404236 42.79300415 11.77340698 43.51544189 C11.77257364 47.15849547 11.87093505 49.96381699 14 53 C14.66 53.33 15.32 53.66 16 54 C16 54.66 16 55.32 16 56 C10.72 56 5.44 56 0 56 C1 54 2 52 3 50 C3.10437444 48.57662251 3.14863817 47.14858004 3.16113281 45.72143555 C3.17074036 44.83679123 3.1803479 43.95214691 3.19024658 43.04069519 C3.19449646 42.08238297 3.19874634 41.12407074 3.203125 40.13671875 C3.20882507 39.15258499 3.21452515 38.16845123 3.22039795 37.15449524 C3.2298555 35.06890948 3.23638492 32.98330873 3.24023438 30.89770508 C3.24992902 27.71083374 3.280941 24.52461021 3.3125 21.33789062 C3.31903108 19.31250383 3.32428114 17.28711242 3.328125 15.26171875 C3.3404718 14.30947922 3.3528186 13.35723969 3.36553955 12.37614441 C3.3488886 7.41541863 3.22287706 4.04880579 0 0 Z " fill="#006785" transform="translate(120,0)"/>
<path d="M0 0 C4.28663998 -0.0995024 8.57265331 -0.1717631 12.86010742 -0.21972656 C14.31595584 -0.23973822 15.77172494 -0.26695677 17.22729492 -0.30175781 C32.36613434 -0.6544269 32.36613434 -0.6544269 38 4 C40.83367399 8.25051099 40.77662177 12.00850862 40 17 C38.60157759 19.75786441 37.05130376 21.64100067 35 24 C35.60585937 24.12375 36.21171875 24.2475 36.8359375 24.375 C40.32164675 25.38170303 41.76639952 27.17860991 44 30 C45.71688412 34.30430104 46.10072634 38.02631202 45.625 42.625 C43.39978121 47.24660825 40.34119742 50.28047302 36 53 C31.18536866 54.62111883 27.04141642 55.24036815 21.97265625 55.1953125 C20.04389648 55.18564453 20.04389648 55.18564453 18.07617188 55.17578125 C16.73827846 55.15907601 15.40038783 55.14214619 14.0625 55.125 C12.69727217 55.11495322 11.3320372 55.10583036 9.96679688 55.09765625 C6.64434801 55.07417605 3.32226679 55.04133359 0 55 C0.474375 54.46375 0.94875 53.9275 1.4375 53.375 C4.69340199 48.42602898 4.15930502 42.49299709 4.16796875 36.75 C4.17129715 35.97366211 4.17462555 35.19732422 4.17805481 34.39746094 C4.18309469 32.76367786 4.18546405 31.12988459 4.18530273 29.49609375 C4.18749328 27.00763952 4.20569103 24.51962622 4.22460938 22.03125 C4.22754318 20.4375015 4.22952806 18.84375092 4.23046875 17.25 C4.23765427 16.51233398 4.24483978 15.77466797 4.25224304 15.01464844 C4.22649643 9.14897081 3.25558816 4.88338224 0 0 Z M14 6 C14 11.28 14 16.56 14 22 C22.27375739 22.04844316 22.27375739 22.04844316 29 19 C30.56430248 15.87139505 30.35627284 13.44397075 30 10 C28.28904021 7.31055892 28.28904021 7.31055892 25 6 C21.26404083 5.67992485 17.76377201 5.8186134 14 6 Z M14 28 C14 34.93 14 41.86 14 49 C24.82811307 49.12941033 24.82811307 49.12941033 34.0625 44.3125 C35.47359928 40.83178843 35.91438133 37.62872592 35 34 C32.8178309 31.2772936 30.11817169 29.55908584 27 28 C22.66396021 27.8606671 18.33919329 27.95745889 14 28 Z " fill="#006785" transform="translate(69,0)"/>
<path d="M0 0 C5.94 0 11.88 0 18 0 C17.01 1.98 16.02 3.96 15 6 C14.56014041 8.29498317 14.56014041 8.29498317 14.61181641 10.54907227 C14.60235992 11.39337296 14.59290344 12.23767365 14.5831604 13.1075592 C14.59226944 14.44843849 14.59226944 14.44843849 14.6015625 15.81640625 C14.59869232 16.75048813 14.59582214 17.68457001 14.59286499 18.6469574 C14.59083021 20.61449798 14.59631894 22.58205905 14.60888672 24.54956055 C14.62496677 27.55628738 14.6090087 30.56167376 14.58984375 33.56835938 C14.59182593 35.48437796 14.59566909 37.40039571 14.6015625 39.31640625 C14.59548981 40.21235001 14.58941711 41.10829376 14.5831604 42.03138733 C14.63825575 46.93208651 15.0185791 49.91769363 18 54 C18 54.66 18 55.32 18 56 C12.06 56 6.12 56 0 56 C0 55.34 0 54.68 0 54 C1 53 2 52 3 51 C4.31561688 47.05314935 4.1427183 43.28176048 4.1328125 39.16796875 C4.13376923 38.29860184 4.13472595 37.42923492 4.13571167 36.53352356 C4.1363922 34.69349088 4.13454677 32.8534558 4.13037109 31.01342773 C4.12504042 28.20876606 4.13031036 25.40426594 4.13671875 22.59960938 C4.13605757 20.80989548 4.13477557 19.02018169 4.1328125 17.23046875 C4.13483673 16.39589645 4.13686096 15.56132416 4.13894653 14.70146179 C4.12161844 10.35484961 3.86857648 6.28034834 3 2 C2.01 1.67 1.02 1.34 0 1 C0 0.67 0 0.34 0 0 Z " fill="#006785" transform="translate(182,0)"/>
<path d="M0 0 C5.61 0 11.22 0 17 0 C16.896875 1.5675 16.79375 3.135 16.6875 4.75 C16.6875 13.09407759 19.84807596 20.41008277 24.875 27 C27 30 27 30 26.7578125 32.0625 C26 34 26 34 24 36 C21.41430378 35.79278965 20.24936679 35.23466548 18.35595703 33.45288086 C17.82856934 32.79682861 17.30118164 32.14077637 16.7578125 31.46484375 C16.16613281 30.73716797 15.57445312 30.00949219 14.96484375 29.25976562 C14.35769531 28.49341797 13.75054687 27.72707031 13.125 26.9375 C12.22587891 25.82858398 12.22587891 25.82858398 11.30859375 24.69726562 C10.1099783 23.21134647 8.92093301 21.71765545 7.74169922 20.21630859 C6.58776863 18.74793434 5.41757559 17.29218474 4.23095703 15.85009766 C-0.27691026 10.21825991 -0.60118911 7.21426927 0 0 Z " fill="#F15C26" transform="translate(0,0)"/>
<path d="M0 0 C3.23828125 1.3203125 3.23828125 1.3203125 6 4 C6.78032195 7.74716299 6.60984329 11.37895608 6.4375 15.1875 C6.41880859 16.21037109 6.40011719 17.23324219 6.38085938 18.28710938 C6.19631165 25.80368835 6.19631165 25.80368835 5 27 C1.46925532 27.57644811 -0.99100538 27.61514914 -4.1015625 25.71875 C-9.7557666 21.05985523 -13.35489306 16.11255671 -14.5 8.8125 C-13.86685954 5.25108493 -12.49731077 3.57076108 -10 1 C-6.83350487 -0.58324757 -3.42541806 -0.64374236 0 0 Z " fill="#F15D26" transform="translate(49,12)"/>
<path d="M0 0 C10.23 0 20.46 0 31 0 C31 2.31 31 4.62 31 7 C30.28714844 6.95359375 29.57429688 6.9071875 28.83984375 6.859375 C22.22351357 6.6100382 18.28746316 6.89951837 13 11 C10.1220031 14.55962774 8.5363262 17.44122733 8 22 C7.34 22 6.68 22 6 22 C4.9741182 20.22302617 3.98062148 18.42734596 3 16.625 C2.1646875 15.12839844 2.1646875 15.12839844 1.3125 13.6015625 C0 10 0 10 0 0 Z " fill="#F15D27" transform="translate(24,0)"/>
<path d="M0 0 C3.44703434 1.53201526 6.06586771 3.65269416 9 6 C12.70677925 8.55639948 16.65363619 8.34803286 21 8 C22.65 7.67 24.3 7.34 26 7 C26 11.29 26 15.58 26 20 C19.73 20 13.46 20 7 20 C7.66 19.34 8.32 18.68 9 18 C8.154375 17.505 7.30875 17.01 6.4375 16.5 C2.21263046 13.71703104 -0.81621924 9.88082152 -4 6 C-2.84826645 3.53199953 -1.95216435 1.95216435 0 0 Z " fill="#F1612B" transform="translate(29,35)"/>
<path d="M0 0 C5.625 5.625 5.625 5.625 7.89453125 8.55078125 C8.37470703 9.16630859 8.85488281 9.78183594 9.34960938 10.41601562 C9.83236328 11.04185547 10.31511719 11.66769531 10.8125 12.3125 C11.31458984 12.95767578 11.81667969 13.60285156 12.33398438 14.26757812 C13.55905681 15.84267125 14.7799632 17.42100316 16 19 C14.43895935 23.17578373 11.36042632 25.52361639 8 28.25 C7.4534375 28.70890625 6.906875 29.1678125 6.34375 29.640625 C2.26450893 33 2.26450893 33 0 33 C0 22.11 0 11.22 0 0 Z " fill="#F15C25" transform="translate(0,21)"/>
<path d="M0 0 C2.43053139 1.03619904 3.27167566 2.10788067 4.73828125 4.28515625 C5.16625 4.90261719 5.59421875 5.52007812 6.03515625 6.15625 C6.98828125 7.84765625 6.98828125 7.84765625 6.98828125 9.84765625 C0.38828125 9.84765625 -6.21171875 9.84765625 -13.01171875 9.84765625 C-2.94132164 -0.22274086 -2.94132164 -0.22274086 0 0 Z " fill="#F1632E" transform="translate(19.01171875,45.15234375)"/>
</svg>
