<?xml version="1.0" encoding="UTF-8"?>
<svg version="1.1" xmlns="http://www.w3.org/2000/svg" width="512" height="146">
<path d="M0 0 C4.33170338 3.33396525 8.19329609 7.08689753 12 11 C12.60328125 11.60585938 13.2065625 12.21171875 13.828125 12.8359375 C28.01332544 28.14102219 31.91401315 48.29589924 31.17480469 68.4375 C30.08000732 84.48637315 22.67522098 99.19130961 12 111 C11.37351562 111.70769531 10.74703125 112.41539063 10.1015625 113.14453125 C-0.69760209 124.67098652 -17.00341773 133.08005453 -32.86621094 134.20288086 C-36.01768055 134.30372185 -39.15950583 134.32206032 -42.3125 134.3125 C-43.36373047 134.32861328 -44.41496094 134.34472656 -45.49804688 134.36132812 C-56.09112875 134.36783893 -65.72363217 132.22163053 -75.125 127.3125 C-75.80167725 126.96582275 -76.47835449 126.61914551 -77.17553711 126.26196289 C-83.03278241 123.16534173 -88.10191243 119.46859108 -93 115 C-93.6084375 114.48308594 -94.216875 113.96617188 -94.84375 113.43359375 C-104.60766565 104.57949751 -110.40289305 92.45384927 -114 80 C-114.24492188 79.1853125 -114.48984375 78.370625 -114.7421875 77.53125 C-119.21968399 59.62126403 -115.51871099 40.1742863 -106.921875 24.15625 C-104.01494283 19.38226384 -100.73209214 15.15176515 -97 11 C-96.48179688 10.38898437 -95.96359375 9.77796875 -95.4296875 9.1484375 C-71.66049096 -17.00962301 -28.37551279 -19.38602527 0 0 Z " fill="#008CEB" transform="translate(116,12)"/>
<path d="M0 0 C1.9609375 1.2890625 1.9609375 1.2890625 3.9609375 3.2890625 C4.20144653 5.19998169 4.20144653 5.19998169 4.18798828 7.55517578 C4.18783722 8.43593781 4.18768616 9.31669983 4.18753052 10.22415161 C4.17720795 11.17627533 4.16688538 12.12839905 4.15625 13.109375 C4.1534201 14.08317108 4.15059021 15.05696716 4.14767456 16.06027222 C4.13645663 19.17832599 4.1113492 22.29609518 4.0859375 25.4140625 C4.07590978 27.52473544 4.06678357 29.63541288 4.05859375 31.74609375 C4.03651208 36.92718085 4.00301879 42.10810135 3.9609375 47.2890625 C2.35659941 46.81047009 0.75247334 46.33116692 -0.8515625 45.8515625 C-1.74488281 45.58472656 -2.63820313 45.31789062 -3.55859375 45.04296875 C-5.39379305 44.48518377 -7.21939976 43.89561675 -9.0390625 43.2890625 C-21.98184469 41.869081 -34.37274393 46.86783202 -46.31689453 51.27001953 C-57.74595854 55.46404613 -67.13704656 55.249034 -78.234375 50.3125 C-80.0390625 49.2890625 -80.0390625 49.2890625 -81.0390625 47.2890625 C-81.12825027 45.89996946 -81.15665791 44.50669343 -81.15258789 43.11474609 C-81.15251236 42.25400482 -81.15243683 41.39326355 -81.15235901 40.50643921 C-81.14719772 39.57618927 -81.14203644 38.64593933 -81.13671875 37.6875 C-81.1353038 36.73589996 -81.13388885 35.78429993 -81.13243103 34.80386353 C-81.12682262 31.75723153 -81.11426869 28.71067237 -81.1015625 25.6640625 C-81.09654858 23.60156356 -81.09198549 21.53906347 -81.08789062 19.4765625 C-81.07685046 14.41403433 -81.05958017 9.35156077 -81.0390625 4.2890625 C-77.94818986 4.82865552 -75.75815938 5.42951406 -72.9140625 6.8515625 C-59.63228447 12.55591589 -42.74519756 4.06967202 -30.1875 -0.59765625 C-19.32956631 -4.43700005 -10.35487653 -5.73036857 0 0 Z " fill="#FBFCFD" transform="translate(112.0390625,47.7109375)"/>
<path d="M0 0 C7.92366273 5.66400657 13.55249888 12.97253965 15.31323242 22.67041016 C15.96843617 27.50540924 15.89369971 32.33250937 15.8671875 37.203125 C15.86577255 38.19204239 15.8643576 39.18095978 15.86289978 40.19984436 C15.85733213 43.33768829 15.84478565 46.47545912 15.83203125 49.61328125 C15.82701207 51.74934792 15.82244989 53.88541572 15.81835938 56.02148438 C15.8073733 61.23961121 15.79013109 66.45768387 15.76953125 71.67578125 C10.15953125 71.67578125 4.54953125 71.67578125 -1.23046875 71.67578125 C-1.23046875 66.39578125 -1.23046875 61.11578125 -1.23046875 55.67578125 C-11.46046875 55.67578125 -21.69046875 55.67578125 -32.23046875 55.67578125 C-32.23046875 60.95578125 -32.23046875 66.23578125 -32.23046875 71.67578125 C-37.84046875 71.67578125 -43.45046875 71.67578125 -49.23046875 71.67578125 C-49.30503465 65.0229737 -49.35926709 58.37041341 -49.39526367 51.71728516 C-49.4102817 49.45747638 -49.4307022 47.19769641 -49.45678711 44.93798828 C-49.4934787 41.67603411 -49.5102655 38.41446778 -49.5234375 35.15234375 C-49.53892136 34.1540152 -49.55440521 33.15568665 -49.57035828 32.12710571 C-49.57287889 21.44541151 -47.10013848 13.22179399 -39.98046875 5.11328125 C-28.61524158 -4.96044283 -13.55030596 -8.04475258 0 0 Z M-27.23046875 16.67578125 C-33.32639276 24.33476269 -32.23046875 27.80152238 -32.23046875 38.67578125 C-22.00046875 38.67578125 -11.77046875 38.67578125 -1.23046875 38.67578125 C-0.84430134 26.34976871 -0.84430134 26.34976871 -6.54296875 16.86328125 C-13.48173837 11.21544551 -20.16042246 11.92854278 -27.23046875 16.67578125 Z " fill="#008CEB" transform="translate(314.23046875,39.32421875)"/>
<path d="M0 0 C7.74152266 6.33397308 12.48565923 13.10811449 13.75 23.25 C13.88080552 26.87308202 13.86642048 30.49215886 13.84765625 34.1171875 C13.8462413 35.15191193 13.84482635 36.18663635 13.84336853 37.25271606 C13.83779039 40.54350732 13.82524188 43.83422946 13.8125 47.125 C13.80748218 49.36197818 13.80291976 51.59895743 13.79882812 53.8359375 C13.78782811 59.30731812 13.77057852 64.77864736 13.75 70.25 C8.14 70.25 2.53 70.25 -3.25 70.25 C-3.25 64.97 -3.25 59.69 -3.25 54.25 C-13.48 54.25 -23.71 54.25 -34.25 54.25 C-34.25 59.53 -34.25 64.81 -34.25 70.25 C-39.86 70.25 -45.47 70.25 -51.25 70.25 C-51.32475261 63.91864536 -51.37888468 57.5875537 -51.41479492 51.25585938 C-51.42978213 49.10672524 -51.45017887 46.95762117 -51.47631836 44.80859375 C-51.83798143 14.28706721 -51.83798143 14.28706721 -42.25 4.25 C-30.87106964 -7.2335642 -13.50294712 -9.61924233 0 0 Z M-30.0625 16.5625 C-35.54035426 23.29243523 -34.25 28.00851901 -34.25 37.25 C-24.02 37.25 -13.79 37.25 -3.25 37.25 C-2.62599172 25.66584975 -2.62599172 25.66584975 -7.25 16.25 C-14.93187524 9.59237479 -22.3929525 10.25642761 -30.0625 16.5625 Z " fill="#008CEB" transform="translate(498.25,40.75)"/>
<path d="M0 0 C41.44660194 0 41.44660194 0 53 10 C61.15426503 18.40372629 65.13111277 28.29818489 65 40 C64.25437751 49.50668672 60.84737743 59.15262257 54 66 C36.75794312 79.73832339 25.34604103 76 0 76 C0 50.92 0 25.84 0 0 Z M17 17 C17 30.86 17 44.72 17 59 C29.64121602 59.90420478 29.64121602 59.90420478 40 55 C44.76545115 50.06320678 47.85888459 44.86848148 48.0625 37.84375 C47.74016858 31.96120157 45.92448307 27.41504345 42 23 C33.81515845 16.45537471 28.10016337 17 17 17 Z " fill="#008CEB" transform="translate(174,35)"/>
<path d="M0 0 C7.49731175 6.13416416 12.1354402 12.55268143 13.75 22.25 C13.83218725 23.906353 13.86790108 25.56549194 13.86352539 27.22387695 C13.86341209 28.66480461 13.86341209 28.66480461 13.86329651 30.13484192 C13.85813522 31.1589769 13.85297394 32.18311188 13.84765625 33.23828125 C13.8462413 34.29661667 13.84482635 35.35495209 13.84336853 36.44535828 C13.83778159 39.81776789 13.82523144 43.19011054 13.8125 46.5625 C13.80748331 48.85221258 13.8029207 51.14192621 13.79882812 53.43164062 C13.78781643 59.03778612 13.77056072 64.64388172 13.75 70.25 C8.14 70.25 2.53 70.25 -3.25 70.25 C-3.2593457 68.89841797 -3.26869141 67.54683594 -3.27832031 66.15429688 C-3.31835046 61.11458007 -3.38414588 56.07546535 -3.45751953 51.03613281 C-3.48565367 48.85977951 -3.5069056 46.68332547 -3.52099609 44.50683594 C-3.54253006 41.36861882 -3.58923506 38.23160337 -3.640625 35.09375 C-3.64185364 34.12884644 -3.64308228 33.16394287 -3.64434814 32.1697998 C-3.77508765 26.06764341 -4.74409219 21.33909882 -8.25 16.25 C-11.97486631 13.04247623 -16.37339673 11.9805744 -21.25 12.25 C-25.04636105 13.22837254 -28.03597921 14.450998 -30.28515625 17.78395081 C-33.47074038 23.56896077 -33.85106664 28.5688234 -33.859375 35.09375 C-33.87591125 36.10344849 -33.89244751 37.11314697 -33.90948486 38.15344238 C-33.95775051 41.35235813 -33.97928852 44.55079921 -34 47.75 C-34.02817754 49.92971111 -34.05810745 52.10940031 -34.08984375 54.2890625 C-34.16350399 59.60933589 -34.21320961 64.92934908 -34.25 70.25 C-39.86 70.25 -45.47 70.25 -51.25 70.25 C-51.2999526 64.50660425 -51.33597755 58.76333881 -51.35986328 53.01977539 C-51.36983541 51.07151075 -51.38341797 49.12326074 -51.40087891 47.17504883 C-51.68983511 14.07256588 -51.68983511 14.07256588 -42.125 3.5625 C-30.57370449 -7.3166296 -13.10312851 -9.33441916 0 0 Z " fill="#008CEB" transform="translate(407.25,40.75)"/>
</svg>
