<?xml version="1.0" encoding="UTF-8"?>
<svg version="1.1" xmlns="http://www.w3.org/2000/svg" width="222" height="66">
<path d="M0 0 C2.93136132 2.53163023 4.71308136 5.10138075 6.75 8.375 C9.84716705 9.92358352 12.32241805 9.633485 15.75 9.375 C19.16706506 7.74375823 22.25640103 5.80851489 25.46875 3.80859375 C29.500373 2.04715846 31.548018 2.17232992 35.75 3.375 C38 5.1171875 38 5.1171875 39.75 7.25 C40.348125 7.94867188 40.94625 8.64734375 41.5625 9.3671875 C42.1503125 10.36105469 42.1503125 10.36105469 42.75 11.375 C41.22666771 15.94499687 37.71774261 17.14761281 33.6875 19.5 C32.94822266 19.95503906 32.20894531 20.41007812 31.44726562 20.87890625 C26.4768066 23.80986809 22.55599556 25.27446328 16.75 25.375 C14.0625 23.25 14.0625 23.25 11.75 20.375 C8.49169982 16.58832682 5.91954045 14.40660924 1.015625 13.51367188 C-7.07937699 13.01820193 -14.63482257 18.79291623 -21.11914062 22.96679688 C-25.29590436 25.55204991 -28.16932568 27.14912641 -33.25 26.375 C-37.4186785 23.73144778 -40.15122705 20.14377791 -43.25 16.375 C-47.06317735 14.46841133 -51.10408141 14.79145918 -55.25 15.375 C-61.44510422 17.72458677 -66.95120041 21.1756199 -72.5 24.75 C-77.14280131 27.56990657 -79.8618746 28.36282299 -85.25 27.375 C-89.49728284 24.57019058 -91.75555302 21.7274808 -94.25 17.375 C-93.13882813 16.72273438 -92.02765625 16.07046875 -90.8828125 15.3984375 C-90.16649658 14.97755859 -89.45018066 14.55667969 -88.7121582 14.12304688 C-87.14855929 13.20445497 -85.58459164 12.28649044 -84.02026367 11.36914062 C-79.83977194 8.91386901 -75.68775341 6.42239151 -71.5625 3.875 C-65.84466363 0.45588839 -61.01359069 -1.33695692 -54.25 -0.625 C-48.92670351 1.66952435 -46.47464983 3.81460955 -43.87890625 8.984375 C-41.57776955 10.94889458 -39.42374727 10.91606264 -36.48120117 10.79296875 C-32.34499856 10.01813793 -29.10511179 7.77208737 -25.625 5.5 C-17.58518126 0.39285536 -9.36451436 -4.68225718 0 0 Z " fill="#FDBB0E" transform="translate(179.25,1.625)"/>
<path d="M0 0 C1.0209375 0.61875 1.0209375 0.61875 2.0625 1.25 C2.701875 1.4975 3.34125 1.745 4 2 C4.928125 1.525625 5.85625 1.05125 6.8125 0.5625 C10.80373562 -1.39398805 12.75752012 -1.17846663 17 0 C19.3181362 1.89111111 20.66914015 3.33828031 22 6 C22.08449628 7.7404417 22.10723024 9.48409722 22.09765625 11.2265625 C22.09443359 12.2578125 22.09121094 13.2890625 22.08789062 14.3515625 C22.07532227 15.97191406 22.07532227 15.97191406 22.0625 17.625 C22.05798828 18.71296875 22.05347656 19.8009375 22.04882812 20.921875 C22.03701776 23.61463789 22.02054778 26.30729188 22 29 C19.36 29 16.72 29 14 29 C13.97494385 28.40461426 13.9498877 27.80922852 13.92407227 27.19580078 C13.80822506 24.50530864 13.68544804 21.8151766 13.5625 19.125 C13.52318359 18.18785156 13.48386719 17.25070313 13.44335938 16.28515625 C13.40146484 15.38925781 13.35957031 14.49335937 13.31640625 13.5703125 C13.26141968 12.32918701 13.26141968 12.32918701 13.20532227 11.06298828 C13.11761673 8.93820571 13.11761673 8.93820571 12 7 C9.52733235 7.34444881 9.52733235 7.34444881 7 8 C5.85345518 10.29308963 5.80270883 11.79909656 5.68359375 14.3515625 C5.64169922 15.20234375 5.59980469 16.053125 5.55664062 16.9296875 C5.51732422 17.81914063 5.47800781 18.70859375 5.4375 19.625 C5.39431641 20.5221875 5.35113281 21.419375 5.30664062 22.34375 C5.20043139 24.56234283 5.09838806 26.7810488 5 29 C2.36 29 -0.28 29 -3 29 C-3.02505615 28.40461426 -3.0501123 27.80922852 -3.07592773 27.19580078 C-3.19177494 24.50530864 -3.31455196 21.8151766 -3.4375 19.125 C-3.47681641 18.18785156 -3.51613281 17.25070313 -3.55664062 16.28515625 C-3.59853516 15.38925781 -3.64042969 14.49335937 -3.68359375 13.5703125 C-3.72025146 12.74289551 -3.75690918 11.91547852 -3.79467773 11.06298828 C-3.88238327 8.93820571 -3.88238327 8.93820571 -5 7 C-7.47266765 7.34444881 -7.47266765 7.34444881 -10 8 C-11.14654482 10.29308963 -11.19729117 11.79909656 -11.31640625 14.3515625 C-11.35830078 15.20234375 -11.40019531 16.053125 -11.44335938 16.9296875 C-11.48267578 17.81914063 -11.52199219 18.70859375 -11.5625 19.625 C-11.60568359 20.5221875 -11.64886719 21.419375 -11.69335938 22.34375 C-11.79956861 24.56234283 -11.90161194 26.7810488 -12 29 C-14.64 29 -17.28 29 -20 29 C-20 19.43 -20 9.86 -20 0 C-17.69 0 -15.38 0 -13 0 C-12.67 0.66 -12.34 1.32 -12 2 C-11.319375 1.484375 -10.63875 0.96875 -9.9375 0.4375 C-6.13136744 -1.42507551 -4.07156016 -0.96236877 0 0 Z " fill="#003C78" transform="translate(20,36)"/>
<path d="M0 0 C2.64 0 5.28 0 8 0 C8 13.2 8 26.4 8 40 C5.69 40 3.38 40 1 40 C0.67 39.34 0.34 38.68 0 38 C-0.99 38.66 -1.98 39.32 -3 40 C-7.18614674 40.60362041 -10.93436214 40.41698873 -14.875 38.875 C-18.23008257 35.91463303 -19.70743152 33.13004122 -20.3203125 28.66796875 C-20.59273206 22.75646436 -19.81270611 17.68738575 -16 13 C-12.03688795 10.53240193 -9.84556919 9.94455284 -5.1875 10.25 C-2 11 -2 11 0 12 C0 8.04 0 4.08 0 0 Z M-10.3125 19.0625 C-12.44392985 22.77276678 -12.67796661 24.78154109 -12 29 C-9.97791641 32.10614087 -9.97791641 32.10614087 -7 34 C-4.30371421 34.17778312 -4.30371421 34.17778312 -2 33 C0.14553377 29.78169935 0.29583868 28.73213493 0.3125 25 C0.32925781 24.13375 0.34601563 23.2675 0.36328125 22.375 C-0.06878272 19.55032372 -0.73622708 18.6897061 -3 17 C-6.56001996 16.26973949 -7.57831903 16.62390616 -10.3125 19.0625 Z " fill="#003C78" transform="translate(121,25)"/>
<path d="M0 0 C2.7381315 3.59379759 3.12424742 6.12417614 3.09765625 10.51171875 C3.09443359 11.44951172 3.09121094 12.38730469 3.08789062 13.35351562 C3.07951172 14.32998047 3.07113281 15.30644531 3.0625 16.3125 C3.05798828 17.30056641 3.05347656 18.28863281 3.04882812 19.30664062 C3.03704303 21.74615474 3.02059011 24.18554689 3 26.625 C0.69 26.625 -1.62 26.625 -4 26.625 C-4.33 25.965 -4.66 25.305 -5 24.625 C-5.99 25.285 -6.98 25.945 -8 26.625 C-12.25631829 27.29911303 -15.84194978 27.37773264 -19.5 25 C-21.37256368 22.03510751 -21.92967856 20.14107206 -22 16.625 C-20.72137853 12.78913558 -19.63764346 11.06986753 -16.3125 8.75 C-12.25267011 7.37118985 -9.26517418 7.40438754 -5 7.625 C-6.3442285 5.35540118 -6.3442285 5.35540118 -9 3.625 C-12.40060685 3.56636885 -15.65559323 4.03781408 -19 4.625 C-19.33 2.975 -19.66 1.325 -20 -0.375 C-13.80126936 -4.50748709 -5.89946239 -4.67040772 0 0 Z M-13 14.625 C-13.98617135 16.56785168 -13.98617135 16.56785168 -14 18.625 C-13.34 19.285 -12.68 19.945 -12 20.625 C-8.90073181 20.30301034 -8.90073181 20.30301034 -6 19.625 C-5.67 17.315 -5.34 15.005 -5 12.625 C-9.39150489 12.61122407 -9.39150489 12.61122407 -13 14.625 Z " fill="#003C77" transform="translate(66,38.375)"/>
<path d="M0 0 C3.15399625 3.07312456 4.88932435 5.78862917 5.11352539 10.26831055 C5.10828857 11.13238525 5.10305176 11.99645996 5.09765625 12.88671875 C5.09443359 13.82451172 5.09121094 14.76230469 5.08789062 15.72851562 C5.07951172 16.70498047 5.07113281 17.68144531 5.0625 18.6875 C5.05798828 19.67556641 5.05347656 20.66363281 5.04882812 21.68164062 C5.03704303 24.12115474 5.02059011 26.56054689 5 29 C2.36 29 -0.28 29 -3 29 C-3.01981934 28.44014404 -3.03963867 27.88028809 -3.06005859 27.3034668 C-3.15537783 24.76434146 -3.26502753 22.22603112 -3.375 19.6875 C-3.4059375 18.80642578 -3.436875 17.92535156 -3.46875 17.01757812 C-3.50742188 16.17001953 -3.54609375 15.32246094 -3.5859375 14.44921875 C-3.63306885 13.27879028 -3.63306885 13.27879028 -3.68115234 12.0847168 C-3.89587889 9.69844232 -3.89587889 9.69844232 -6 7 C-9.29075996 7.37904208 -9.29075996 7.37904208 -12 9 C-12.15655027 10.48638992 -12.25066943 11.97949127 -12.31640625 13.47265625 C-12.35830078 14.37177734 -12.40019531 15.27089844 -12.44335938 16.19726562 C-12.50233398 17.61555664 -12.50233398 17.61555664 -12.5625 19.0625 C-12.60568359 20.01189453 -12.64886719 20.96128906 -12.69335938 21.93945312 C-12.79979276 24.29281353 -12.90181008 26.64628354 -13 29 C-15.64 29 -18.28 29 -21 29 C-21.33 19.43 -21.66 9.86 -22 0 C-19.36 0 -16.72 0 -14 0 C-14 0.66 -14 1.32 -14 2 C-13.175 1.484375 -12.35 0.96875 -11.5 0.4375 C-7.28586884 -1.29330387 -4.30745189 -1.52459918 0 0 Z " fill="#003C78" transform="translate(94,36)"/>
<path d="M0 0 C2.31 0 4.62 0 7 0 C7.33 0.66 7.66 1.32 8 2 C8.99 1.34 9.98 0.68 11 0 C14.1875 -0.125 14.1875 -0.125 17 0 C17 2.31 17 4.62 17 7 C14.69 7.33 12.38 7.66 10 8 C9.24722485 10.73249341 8.83358297 13.28100683 8.68359375 16.109375 C8.64169922 16.86347656 8.59980469 17.61757813 8.55664062 18.39453125 C8.49766602 19.56048828 8.49766602 19.56048828 8.4375 20.75 C8.39431641 21.54277344 8.35113281 22.33554687 8.30664062 23.15234375 C8.20097009 25.10137815 8.10002034 27.05066748 8 29 C5.36 29 2.72 29 0 29 C0 19.43 0 9.86 0 0 Z " fill="#003D78" transform="translate(145,36)"/>
<path d="M0 0 C2.64 0 5.28 0 8 0 C8 9.57 8 19.14 8 29 C5.36 29 2.72 29 0 29 C0 19.43 0 9.86 0 0 Z " fill="#003D79" transform="translate(164,36)"/>
<path d="M0 0 C2.64 0 5.28 0 8 0 C8 9.57 8 19.14 8 29 C5.36 29 2.72 29 0 29 C0 19.43 0 9.86 0 0 Z " fill="#003D78" transform="translate(133,36)"/>
</svg>
