<?xml version="1.0" encoding="UTF-8"?>
<svg version="1.1" xmlns="http://www.w3.org/2000/svg" width="512" height="160">
<path d="M0 0 C1.27206299 0.00612305 2.54412598 0.01224609 3.85473633 0.01855469 C13.05850399 0.17176421 20.97946228 1.1193587 29.625 4.4375 C30.52347656 4.73785156 31.42195313 5.03820312 32.34765625 5.34765625 C43.37042817 9.2831436 52.35411645 16.3143108 60.625 24.4375 C61.3984375 25.18644531 62.171875 25.93539063 62.96875 26.70703125 C78.00107826 42.22842498 83.11991443 62.41085277 82.83984375 83.5390625 C82.17414972 104.91569675 72.01034818 123.94437144 56.625 138.4375 C36.30348542 154.64358836 13.09971273 160.7386396 -12.6015625 158.21923828 C-31.16461489 155.67040218 -47.03205003 147.36056693 -60.375 134.4375 C-60.98859375 133.90898437 -61.6021875 133.38046875 -62.234375 132.8359375 C-73.61227231 122.65846055 -81.56544841 104.86104619 -82.55200195 89.72119141 C-83.07759477 64.57230804 -79.27180314 43.25840658 -61.375 24.4375 C-44.92598215 7.56281441 -23.22382303 -0.19100312 0 0 Z M-41.4140625 46.81640625 C-50.04641504 58.25886504 -52.17470388 71.4278727 -51.375 85.4375 C-49.31177518 99.74019409 -41.90942137 111.22881399 -30.9609375 120.4765625 C-18.88016891 129.48919938 -4.98487584 132.11227427 9.8203125 129.9765625 C24.37017882 126.7474799 36.00220266 118.50228603 44.0625 106 C51.77605553 92.57903544 53.14454284 78.49652754 49.625 63.4375 C46.0933854 50.88270254 37.56351088 40.08095912 26.359375 33.52734375 C2.32805762 20.54073939 -23.64216544 26.08252635 -41.4140625 46.81640625 Z " fill="#4A2389" transform="translate(82.375,-0.4375)"/>
<path d="M0 0 C3.5027193 2.84173067 6.78192643 5.84102294 10 9 C10.69996094 9.67546875 11.39992188 10.3509375 12.12109375 11.046875 C27.14074027 26.62280472 31.57204963 47.34591333 31.26953125 68.3125 C30.66722466 86.16213776 22.97035522 102.87911984 11 116 C10.48308594 116.6084375 9.96617187 117.216875 9.43359375 117.84375 C-3.41392872 132.01144395 -25.3432615 141.01195433 -44.09082031 142.12402344 C-68.82700174 143.00474023 -91.12007289 136.47525481 -110 120 C-110.61488281 119.48050781 -111.22976563 118.96101562 -111.86328125 118.42578125 C-120.82479492 110.24711245 -127.16487007 98.37003228 -131 87 C-131.31839844 86.06671875 -131.63679688 85.1334375 -131.96484375 84.171875 C-137.6731248 64.07451683 -134.54295605 42.34825132 -124.86328125 24.12890625 C-122.25609133 19.75079487 -119.29856478 15.87117626 -116 12 C-115.278125 11.01 -114.55625 10.02 -113.8125 9 C-86.31787722 -23.10662402 -32.40052237 -23.69377407 0 0 Z M-91.93359375 29.2421875 C-101.17773822 41.36891466 -104.23817072 55.73729275 -102.3125 70.6875 C-99.93409212 83.63660955 -93.69493284 94.93979856 -83.39453125 103.37109375 C-71.10399591 111.73186575 -58.88976054 115.31286061 -44 114 C-39.50408174 113.02872145 -35.28585648 111.6599741 -31 110 C-30.26136719 109.72285156 -29.52273438 109.44570312 -28.76171875 109.16015625 C-16.65723936 103.89628445 -8.06853378 92.52561786 -3.03515625 80.7109375 C2.02412291 67.46135358 1.00023996 53.5104344 -3.99609375 40.3828125 C-9.76070997 27.57698685 -20.50110995 18.47972425 -33.2109375 13.03515625 C-54.44048701 5.15584166 -77.36049916 12.3432859 -91.93359375 29.2421875 Z " fill="#4A2389" transform="translate(481,16)"/>
<path d="M0 0 C22.77 0 45.54 0 69 0 C69 8.58 69 17.16 69 26 C64.05 26.33 59.1 26.66 54 27 C54.67651611 28.49551392 54.67651611 28.49551392 55.36669922 30.02124023 C67.08508837 55.9387966 78.61464617 81.93449541 90 108 C95.13936026 97.22703135 99.92452822 86.32428739 104.59503174 75.34075928 C106.56034894 70.71956871 108.53396106 66.10192546 110.5078125 61.484375 C110.89436005 60.5798056 111.28090759 59.67523621 111.6791687 58.74325562 C116.36507457 47.79009258 121.16349433 36.8874643 126 26 C119.73 26 113.46 26 107 26 C107 17.42 107 8.84 107 0 C125.81 0 144.62 0 164 0 C164 12.51124848 163.48444751 18.2284494 158.3125 28.625 C157.71699784 29.87680683 157.12462038 31.13010424 156.53515625 32.38476562 C155.31348547 34.97886078 154.07890345 37.566165 152.83447266 40.14941406 C149.92949458 46.20897354 147.22761769 52.35900174 144.5 58.5 C143.41757906 60.91707546 142.33424354 63.33374156 141.25 65.75 C140.71375 66.94625 140.1775 68.1425 139.625 69.375 C134.75 80.25 134.75 80.25 133.12451172 83.87597656 C132.0426938 86.28933773 130.96098782 88.70274909 129.87939453 91.11621094 C127.42542984 96.59163352 124.97064466 102.06668004 122.5113678 107.53971863 C115.26734597 123.66130548 108.08997612 139.81003631 101 156 C91.20117467 155.00864281 82.60405272 153.98845571 75.2578125 146.80859375 C64.76639942 133.75785672 58.96633383 116.35864554 52.13671875 101.16796875 C47.76114338 91.43567152 43.29163491 81.74747625 38.8125 72.0625 C38.0489532 70.41041781 37.28544377 68.75831834 36.52197266 67.10620117 C35.04616397 63.91305048 33.56988253 60.72011896 32.09326172 57.52734375 C29.016577 50.87421006 25.94593054 44.21829104 22.875 37.5625 C21.91409178 35.48045524 20.95315785 33.39842234 19.9921875 31.31640625 C19.33476562 29.89199219 18.67734375 28.46757813 18 27 C12.06 26.67 6.12 26.34 0 26 C0 17.42 0 8.84 0 0 Z " fill="#4A2389" transform="translate(172,4)"/>
</svg>
