<?xml version="1.0" encoding="UTF-8"?>
<!DOCTYPE svg PUBLIC "-//W3C//DTD SVG 1.1//EN" "http://www.w3.org/Graphics/SVG/1.1/DTD/svg11.dtd">
<svg xmlns="http://www.w3.org/2000/svg" version="1.1" width="250px" height="250px" style="shape-rendering:geometricPrecision; text-rendering:geometricPrecision; image-rendering:optimizeQuality; fill-rule:evenodd; clip-rule:evenodd" xmlns:xlink="http://www.w3.org/1999/xlink">
<g><path style="opacity:1" fill="#201c67" d="M -0.5,-0.5 C 82.8333,-0.5 166.167,-0.5 249.5,-0.5C 249.5,82.8333 249.5,166.167 249.5,249.5C 166.167,249.5 82.8333,249.5 -0.5,249.5C -0.5,166.167 -0.5,82.8333 -0.5,-0.5 Z"/></g>
<g><path style="opacity:1" fill="#1f194c" d="M 84.5,82.5 C 85.1894,81.2264 86.0228,81.2264 87,82.5C 88.7519,85.672 90.7519,88.672 93,91.5C 93.9563,95.342 94.7896,99.1754 95.5,103C 101.348,103.173 107.015,103.673 112.5,104.5C 112.167,104.5 111.833,104.5 111.5,104.5C 105.491,104.334 99.4908,104.501 93.5,105C 88.6329,109.532 84.1329,114.366 80,119.5C 78.1254,106.911 79.9587,94.9109 85.5,83.5C 85.3764,82.8933 85.0431,82.56 84.5,82.5 Z"/></g>
<g><path style="opacity:1" fill="#94e13a" d="M 149.5,92.5 C 150.342,97.8212 148.342,101.488 143.5,103.5C 137.363,105.734 131.696,108.734 126.5,112.5C 127.434,108.627 128.934,104.961 131,101.5C 131.702,96.3592 132.869,91.3592 134.5,86.5C 137.85,86.335 141.183,86.5017 144.5,87C 147.079,88.0757 148.746,89.909 149.5,92.5 Z"/></g>
<g><path style="opacity:1" fill="#e7f7c3" d="M 141.5,90.5 C 142.376,90.3691 143.043,90.7025 143.5,91.5C 142.5,92.1667 141.5,92.8333 140.5,93.5C 145.794,95.9269 145.794,98.2602 140.5,100.5C 139.354,99.8551 138.354,99.0217 137.5,98C 139.225,98.4087 140.892,98.2421 142.5,97.5C 137.644,95.6368 137.311,93.3034 141.5,90.5 Z"/></g>
<g><path style="opacity:1" fill="#f3f3f4" d="M 60.5,104.5 C 60.5,107.167 60.5,109.833 60.5,112.5C 52.9809,112.175 45.6476,112.508 38.5,113.5C 37.1134,115.489 37.4468,117.322 39.5,119C 42.4816,119.498 45.4816,119.665 48.5,119.5C 45.1208,122.858 41.1208,125.191 36.5,126.5C 35.391,126.443 34.391,126.11 33.5,125.5C 27.7083,119.991 27.0417,113.825 31.5,107C 32.6721,106.581 33.6721,105.915 34.5,105C 43.1603,104.5 51.8269,104.334 60.5,104.5 Z"/></g>
<g><path style="opacity:1" fill="#9bdf1c" d="M 158.5,104.5 C 162.833,104.5 167.167,104.5 171.5,104.5C 176.401,105.105 179.401,107.772 180.5,112.5C 182.112,119.892 179.445,122.226 172.5,119.5C 172.244,117.208 172.577,115.041 173.5,113C 167.5,112.667 161.5,112.333 155.5,112C 157.377,109.874 158.377,107.374 158.5,104.5 Z"/></g>
<g><path style="opacity:1" fill="#274e30" d="M 154.5,104.5 C 153.772,106.512 152.938,108.512 152,110.5C 150.644,111.38 149.144,111.714 147.5,111.5C 149.309,109.901 150.642,107.901 151.5,105.5C 152.417,104.873 153.417,104.539 154.5,104.5 Z"/></g>
<g><path style="opacity:1" fill="#6f6b82" d="M 60.5,104.5 C 61.3382,104.842 61.6716,105.508 61.5,106.5C 61.5,108.833 61.5,111.167 61.5,113.5C 53.8333,113.5 46.1667,113.5 38.5,113.5C 45.6476,112.508 52.9809,112.175 60.5,112.5C 60.5,109.833 60.5,107.167 60.5,104.5 Z"/></g>
<g><path style="opacity:1" fill="#201648" d="M 221.5,104.5 C 223.584,108.336 225.917,112.003 228.5,115.5C 228.232,118.119 228.565,120.619 229.5,123C 227.774,124.53 225.774,125.53 223.5,126C 222.853,127.609 222.02,129.109 221,130.5C 220.282,129.549 219.449,129.383 218.5,130C 217.635,131.359 216.635,132.526 215.5,133.5C 212.395,130.725 210.062,127.392 208.5,123.5C 213.217,117.446 217.55,111.113 221.5,104.5 Z"/></g>
<g><path style="opacity:1" fill="#1f174a" d="M 103.5,107.5 C 106.559,111.228 109.226,115.228 111.5,119.5C 110.601,120.994 110.935,122.494 112.5,124C 107.672,128.106 102.672,131.272 97.5,133.5C 94.2992,130.458 91.6326,126.958 89.5,123C 92.2687,118.56 95.4354,114.394 99,110.5C 100.129,108.859 101.629,107.859 103.5,107.5 Z"/></g>
<g><path style="opacity:1" fill="#a4e01c" d="M 221.5,104.5 C 217.55,111.113 213.217,117.446 208.5,123.5C 207.735,124.66 206.735,125.66 205.5,126.5C 203.298,125.22 201.132,125.22 199,126.5C 198.768,125.263 198.268,124.263 197.5,123.5C 197.5,122.833 197.167,122.5 196.5,122.5C 192.595,117.032 188.928,111.365 185.5,105.5C 188.833,104.167 192.167,104.167 195.5,105.5C 198,109.167 200.5,112.833 203,116.5C 205.624,112.752 208.124,108.919 210.5,105C 214.152,104.501 217.818,104.335 221.5,104.5 Z"/></g>
<g><path style="opacity:1" fill="#221847" d="M 61.5,106.5 C 64.6072,109.421 66.6072,113.088 67.5,117.5C 66.2017,120.481 64.8684,123.481 63.5,126.5C 60.2245,120.698 55.2245,118.364 48.5,119.5C 45.4816,119.665 42.4816,119.498 39.5,119C 37.4468,117.322 37.1134,115.489 38.5,113.5C 46.1667,113.5 53.8333,113.5 61.5,113.5C 61.5,111.167 61.5,108.833 61.5,106.5 Z"/></g>
<g><path style="opacity:1" fill="#4f9435" d="M 154.5,104.5 C 155.833,104.5 157.167,104.5 158.5,104.5C 158.377,107.374 157.377,109.874 155.5,112C 161.5,112.333 167.5,112.667 173.5,113C 172.577,115.041 172.244,117.208 172.5,119.5C 172.167,119.5 171.833,119.5 171.5,119.5C 171.859,117.234 171.192,115.401 169.5,114C 165.179,113.501 160.846,113.334 156.5,113.5C 156.5,115.5 156.5,117.5 156.5,119.5C 155.539,117.735 155.205,115.735 155.5,113.5C 154.07,113.579 152.736,113.246 151.5,112.5C 150.702,114.078 150.202,115.744 150,117.5C 149.329,118.252 148.496,118.586 147.5,118.5C 147.5,116.167 147.5,113.833 147.5,111.5C 149.144,111.714 150.644,111.38 152,110.5C 152.938,108.512 153.772,106.512 154.5,104.5 Z"/></g>
<g><path style="opacity:1" fill="#1e1542" d="M 171.5,119.5 C 169.901,121.729 167.901,122.062 165.5,120.5C 162.713,119.523 159.713,119.19 156.5,119.5C 156.5,117.5 156.5,115.5 156.5,113.5C 160.846,113.334 165.179,113.501 169.5,114C 171.192,115.401 171.859,117.234 171.5,119.5 Z"/></g>
<g><path style="opacity:1" fill="#0bc9ed" d="M 84.5,82.5 C 85.0431,82.56 85.3764,82.8933 85.5,83.5C 79.9587,94.9109 78.1254,106.911 80,119.5C 84.1329,114.366 88.6329,109.532 93.5,105C 99.4908,104.501 105.491,104.334 111.5,104.5C 112.23,107.618 113.23,110.618 114.5,113.5C 112.801,113.66 111.134,113.494 109.5,113C 110.833,112.333 110.833,111.667 109.5,111C 107.395,109.869 105.395,108.703 103.5,107.5C 101.629,107.859 100.129,108.859 99,110.5C 95.4354,114.394 92.2687,118.56 89.5,123C 91.6326,126.958 94.2992,130.458 97.5,133.5C 99.5,136.5 101.5,139.5 103.5,142.5C 100.36,143.641 97.0267,143.808 93.5,143C 89.703,138.552 86.0363,134.052 82.5,129.5C 81.5224,129.977 80.6891,130.643 80,131.5C 79.5012,135.486 79.3345,139.486 79.5,143.5C 76.1667,143.5 72.8333,143.5 69.5,143.5C 69.5,141.833 69.5,140.167 69.5,138.5C 69.1673,122.819 69.5006,107.152 70.5,91.5C 75.1843,88.4737 79.8509,85.4737 84.5,82.5 Z"/></g>
<g><path style="opacity:1" fill="#0dbce7" d="M 143.5,103.5 C 138.244,111.27 132.744,118.936 127,126.5C 126.928,138.952 125.761,151.286 123.5,163.5C 121.213,159.878 118.547,156.545 115.5,153.5C 114.763,151.695 113.763,150.029 112.5,148.5C 113.436,147.026 114.77,146.026 116.5,145.5C 117.664,139.193 117.831,132.859 117,126.5C 115.303,123.98 113.47,121.647 111.5,119.5C 109.226,115.228 106.559,111.228 103.5,107.5C 105.395,108.703 107.395,109.869 109.5,111C 110.833,111.667 110.833,112.333 109.5,113C 111.134,113.494 112.801,113.66 114.5,113.5C 113.23,110.618 112.23,107.618 111.5,104.5C 111.833,104.5 112.167,104.5 112.5,104.5C 115.445,109.286 118.612,113.952 122,118.5C 123.277,116.253 124.777,114.253 126.5,112.5C 131.696,108.734 137.363,105.734 143.5,103.5 Z"/></g>
<g><path style="opacity:1" fill="#65d135" d="M 180.5,112.5 C 180.833,112.5 181.167,112.5 181.5,112.5C 182.427,119.066 180.427,124.399 175.5,128.5C 168.713,127.342 162.046,125.676 155.5,123.5C 155.5,122.5 155.5,121.5 155.5,120.5C 158.833,120.5 162.167,120.5 165.5,120.5C 167.901,122.062 169.901,121.729 171.5,119.5C 171.833,119.5 172.167,119.5 172.5,119.5C 179.445,122.226 182.112,119.892 180.5,112.5 Z"/></g>
<g><path style="opacity:1" fill="#35c645" d="M 156.5,119.5 C 159.713,119.19 162.713,119.523 165.5,120.5C 162.167,120.5 158.833,120.5 155.5,120.5C 155.5,121.5 155.5,122.5 155.5,123.5C 162.046,125.676 168.713,127.342 175.5,128.5C 174.909,129.151 174.243,129.818 173.5,130.5C 176.585,134.246 179.251,138.246 181.5,142.5C 178.713,143.477 175.713,143.81 172.5,143.5C 172.167,143.5 171.833,143.5 171.5,143.5C 168.58,138.732 165.414,134.066 162,129.5C 160.301,128.594 158.467,128.261 156.5,128.5C 156.167,128.5 155.833,128.5 155.5,128.5C 153.621,127.659 151.621,127.325 149.5,127.5C 149.869,125.007 149.203,124.34 147.5,125.5C 147.5,123.167 147.5,120.833 147.5,118.5C 148.496,118.586 149.329,118.252 150,117.5C 150.202,115.744 150.702,114.078 151.5,112.5C 152.736,113.246 154.07,113.579 155.5,113.5C 155.205,115.735 155.539,117.735 156.5,119.5 Z"/></g>
<g><path style="opacity:1" fill="#1d1747" d="M 33.5,125.5 C 34.391,126.11 35.391,126.443 36.5,126.5C 41.6509,127.327 46.9842,127.827 52.5,128C 54.6015,129.733 54.9348,131.733 53.5,134C 48.8452,134.499 44.1785,134.666 39.5,134.5C 37.5161,131.511 35.5161,128.511 33.5,125.5 Z"/></g>
<g><path style="opacity:1" fill="#207151" d="M 147.5,111.5 C 147.5,113.833 147.5,116.167 147.5,118.5C 147.5,120.833 147.5,123.167 147.5,125.5C 147.5,131.5 147.5,137.5 147.5,143.5C 150.167,143.5 152.833,143.5 155.5,143.5C 155.5,138.5 155.5,133.5 155.5,128.5C 155.833,128.5 156.167,128.5 156.5,128.5C 156.5,133.833 156.5,139.167 156.5,144.5C 153.167,144.5 149.833,144.5 146.5,144.5C 146.172,133.321 146.505,122.321 147.5,111.5 Z"/></g>
<g><path style="opacity:1" fill="#211a4c" d="M 181.5,112.5 C 183.134,113.972 184.634,115.638 186,117.5C 187.168,122.173 188.335,126.839 189.5,131.5C 192.239,128.767 194.573,125.767 196.5,122.5C 197.167,122.5 197.5,122.833 197.5,123.5C 193.772,129.946 189.772,136.279 185.5,142.5C 188.768,143.487 192.102,143.82 195.5,143.5C 192.713,144.477 189.713,144.81 186.5,144.5C 185.325,144.281 184.325,144.614 183.5,145.5C 185.192,147.359 186.692,149.359 188,151.5C 189.072,154.553 188.072,156.553 185,157.5C 182.941,155.93 180.774,154.597 178.5,153.5C 177.833,153.167 177.167,152.833 176.5,152.5C 176.509,150.692 176.009,149.025 175,147.5C 173.373,146.468 172.207,145.134 171.5,143.5C 171.833,143.5 172.167,143.5 172.5,143.5C 175.687,144.806 179.02,144.806 182.5,143.5C 182.376,142.893 182.043,142.56 181.5,142.5C 179.251,138.246 176.585,134.246 173.5,130.5C 174.243,129.818 174.909,129.151 175.5,128.5C 180.427,124.399 182.427,119.066 181.5,112.5 Z"/></g>
<g><path style="opacity:1" fill="#6fc932" d="M 197.5,123.5 C 198.268,124.263 198.768,125.263 199,126.5C 201.132,125.22 203.298,125.22 205.5,126.5C 206.735,125.66 207.735,124.66 208.5,123.5C 210.062,127.392 212.395,130.725 215.5,133.5C 216.901,136.634 218.568,139.634 220.5,142.5C 217.713,143.477 214.713,143.81 211.5,143.5C 208.913,139.733 206.08,136.067 203,132.5C 200.49,136.195 197.99,139.862 195.5,143.5C 192.102,143.82 188.768,143.487 185.5,142.5C 189.772,136.279 193.772,129.946 197.5,123.5 Z"/></g>
<g><path style="opacity:1" fill="#0db954" d="M 155.5,128.5 C 155.5,133.5 155.5,138.5 155.5,143.5C 152.833,143.5 150.167,143.5 147.5,143.5C 147.5,137.5 147.5,131.5 147.5,125.5C 149.203,124.34 149.869,125.007 149.5,127.5C 151.621,127.325 153.621,127.659 155.5,128.5 Z"/></g>
<g><path style="opacity:1" fill="#0db8e2" d="M 48.5,119.5 C 55.2245,118.364 60.2245,120.698 63.5,126.5C 63.5,126.833 63.5,127.167 63.5,127.5C 65.0735,134.515 62.7402,139.681 56.5,143C 48.4211,143.8 40.4211,143.633 32.5,142.5C 30.127,140.421 28.7936,137.754 28.5,134.5C 32.1667,134.5 35.8333,134.5 39.5,134.5C 44.1785,134.666 48.8452,134.499 53.5,134C 54.9348,131.733 54.6015,129.733 52.5,128C 46.9842,127.827 41.6509,127.327 36.5,126.5C 41.1208,125.191 45.1208,122.858 48.5,119.5 Z"/></g>
<g><path style="opacity:1" fill="#1b5147" d="M 181.5,142.5 C 182.043,142.56 182.376,142.893 182.5,143.5C 179.02,144.806 175.687,144.806 172.5,143.5C 175.713,143.81 178.713,143.477 181.5,142.5 Z"/></g>
<g><path style="opacity:1" fill="#335540" d="M 220.5,142.5 C 221.338,142.842 221.672,143.508 221.5,144.5C 217.958,144.813 214.625,144.479 211.5,143.5C 214.713,143.81 217.713,143.477 220.5,142.5 Z"/></g>
<g><path style="opacity:1" fill="#20184b" d="M 149.5,92.5 C 152.281,95.6234 154.615,99.1234 156.5,103C 161.684,103.174 166.684,103.674 171.5,104.5C 167.167,104.5 162.833,104.5 158.5,104.5C 157.167,104.5 155.833,104.5 154.5,104.5C 153.417,104.539 152.417,104.873 151.5,105.5C 150.642,107.901 149.309,109.901 147.5,111.5C 146.505,122.321 146.172,133.321 146.5,144.5C 149.833,144.5 153.167,144.5 156.5,144.5C 156.5,139.167 156.5,133.833 156.5,128.5C 158.467,128.261 160.301,128.594 162,129.5C 165.414,134.066 168.58,138.732 171.5,143.5C 169.783,141.483 167.783,141.15 165.5,142.5C 163.978,145.629 163.145,148.963 163,152.5C 162.632,153.91 161.799,154.91 160.5,155.5C 155.284,154.275 151.617,151.275 149.5,146.5C 148.167,145.833 146.833,145.167 145.5,144.5C 145.167,143.167 144.833,141.833 144.5,140.5C 142.867,143.96 141.034,147.294 139,150.5C 138.336,159.647 136.836,168.647 134.5,177.5C 134.267,178.932 133.6,179.432 132.5,179C 130.531,177.5 129.198,175.667 128.5,173.5C 126.965,172.156 125.632,170.489 124.5,168.5C 123.691,166.929 123.357,165.262 123.5,163.5C 125.761,151.286 126.928,138.952 127,126.5C 132.744,118.936 138.244,111.27 143.5,103.5C 148.342,101.488 150.342,97.8212 149.5,92.5 Z"/></g>
<g><path style="opacity:1" fill="#221b5d" d="M 171.5,143.5 C 172.207,145.134 173.373,146.468 175,147.5C 176.009,149.025 176.509,150.692 176.5,152.5C 175.778,152.918 175.278,153.584 175,154.5C 173.989,153.663 172.822,153.33 171.5,153.5C 171.071,157.024 169.571,160.024 167,162.5C 165.448,163.966 163.614,164.966 161.5,165.5C 160.016,163.926 158.349,162.593 156.5,161.5C 156.017,158.177 154.517,155.51 152,153.5C 147.778,156.708 144.612,160.875 142.5,166C 145.612,170.004 144.612,172.171 139.5,172.5C 140.419,184.795 136.919,186.462 129,177.5C 128.51,176.207 128.343,174.873 128.5,173.5C 129.198,175.667 130.531,177.5 132.5,179C 133.6,179.432 134.267,178.932 134.5,177.5C 136.836,168.647 138.336,159.647 139,150.5C 141.034,147.294 142.867,143.96 144.5,140.5C 144.833,141.833 145.167,143.167 145.5,144.5C 146.833,145.167 148.167,145.833 149.5,146.5C 151.617,151.275 155.284,154.275 160.5,155.5C 161.799,154.91 162.632,153.91 163,152.5C 163.145,148.963 163.978,145.629 165.5,142.5C 167.783,141.15 169.783,141.483 171.5,143.5 Z"/></g>
<g><path style="opacity:1" fill="#211850" d="M 211.5,143.5 C 214.625,144.479 217.958,144.813 221.5,144.5C 224.602,147.391 226.602,151.057 227.5,155.5C 227.167,155.833 226.833,156.167 226.5,156.5C 225.18,154.73 223.68,154.397 222,155.5C 218.777,154.448 216.277,152.448 214.5,149.5C 213.012,151.149 212.012,153.149 211.5,155.5C 208.549,156.953 206.049,158.953 204,161.5C 202.213,160.657 200.38,160.49 198.5,161C 193.145,156.444 189.145,150.944 186.5,144.5C 189.713,144.81 192.713,144.477 195.5,143.5C 197.99,139.862 200.49,136.195 203,132.5C 206.08,136.067 208.913,139.733 211.5,143.5 Z"/></g>
<g><path style="opacity:1" fill="#231b5e" d="M 228.5,115.5 C 230.742,118.274 232.909,121.274 235,124.5C 235.667,126.833 235.667,129.167 235,131.5C 232.95,134.744 230.617,137.744 228,140.5C 228.066,143.578 227.899,146.578 227.5,149.5C 227.913,153.011 229.746,155.345 233,156.5C 233.414,156.043 233.914,155.709 234.5,155.5C 235.204,158.704 235.87,161.871 236.5,165C 234.552,167.667 231.885,169.167 228.5,169.5C 226.579,168.286 224.912,166.786 223.5,165C 224.654,164.086 224.487,163.253 223,162.5C 220.26,163.282 217.426,163.782 214.5,164C 213.167,165.84 213.334,166.34 215,165.5C 215.986,167.925 215.319,169.591 213,170.5C 211.606,169.387 210.439,168.053 209.5,166.5C 207.261,168.12 205.427,167.787 204,165.5C 201.649,168.043 200.483,167.377 200.5,163.5C 199.167,163.5 197.833,163.5 196.5,163.5C 196.282,167.944 194.116,170.944 190,172.5C 187.382,167.587 184.048,163.254 180,159.5C 179.685,157.414 179.185,155.414 178.5,153.5C 180.774,154.597 182.941,155.93 185,157.5C 188.072,156.553 189.072,154.553 188,151.5C 186.692,149.359 185.192,147.359 183.5,145.5C 184.325,144.614 185.325,144.281 186.5,144.5C 189.145,150.944 193.145,156.444 198.5,161C 200.38,160.49 202.213,160.657 204,161.5C 206.049,158.953 208.549,156.953 211.5,155.5C 212.012,153.149 213.012,151.149 214.5,149.5C 216.277,152.448 218.777,154.448 222,155.5C 223.68,154.397 225.18,154.73 226.5,156.5C 226.833,156.167 227.167,155.833 227.5,155.5C 226.602,151.057 224.602,147.391 221.5,144.5C 221.672,143.508 221.338,142.842 220.5,142.5C 218.568,139.634 216.901,136.634 215.5,133.5C 216.635,132.526 217.635,131.359 218.5,130C 219.449,129.383 220.282,129.549 221,130.5C 222.02,129.109 222.853,127.609 223.5,126C 225.774,125.53 227.774,124.53 229.5,123C 228.565,120.619 228.232,118.119 228.5,115.5 Z"/></g>
<g><path style="opacity:1" fill="#20184d" d="M 63.5,127.5 C 65.2012,128.525 66.5345,130.025 67.5,132C 67.9902,134.346 68.6568,136.513 69.5,138.5C 69.5,140.167 69.5,141.833 69.5,143.5C 72.8333,143.5 76.1667,143.5 79.5,143.5C 79.3345,139.486 79.5012,135.486 80,131.5C 80.6891,130.643 81.5224,129.977 82.5,129.5C 86.0363,134.052 89.703,138.552 93.5,143C 97.0267,143.808 100.36,143.641 103.5,142.5C 107.98,146.801 110.313,152.135 110.5,158.5C 108.856,158.286 107.356,158.62 106,159.5C 101.991,154.325 97.4906,149.658 92.5,145.5C 91.289,147.422 89.9557,149.255 88.5,151C 89.1304,155.237 87.1304,157.737 82.5,158.5C 77.5931,156.235 74.0931,152.569 72,147.5C 71.6667,150.167 71.3333,152.833 71,155.5C 70.6667,155.167 70.3333,154.833 70,154.5C 68.8333,156.167 67.6667,157.833 66.5,159.5C 64.0314,157.993 61.8647,158.327 60,160.5C 56.4549,159.767 52.9549,158.767 49.5,157.5C 48.914,157.709 48.414,158.043 48,158.5C 45.6922,157.009 43.1922,156.009 40.5,155.5C 37.0806,151.667 34.4139,147.334 32.5,142.5C 40.4211,143.633 48.4211,143.8 56.5,143C 62.7402,139.681 65.0735,134.515 63.5,127.5 Z"/></g>
<g><path style="opacity:1" fill="#221b5e" d="M 111.5,119.5 C 113.47,121.647 115.303,123.98 117,126.5C 117.831,132.859 117.664,139.193 116.5,145.5C 114.77,146.026 113.436,147.026 112.5,148.5C 113.763,150.029 114.763,151.695 115.5,153.5C 114.305,153.866 113.639,154.699 113.5,156C 116.765,160.496 117.765,165.329 116.5,170.5C 113.833,170.5 111.167,170.5 108.5,170.5C 108.649,169.448 108.483,168.448 108,167.5C 103.424,162.013 99.0909,156.347 95,150.5C 94.1157,153.935 92.949,157.268 91.5,160.5C 89.6571,162.605 87.3238,163.772 84.5,164C 86.8793,166.025 87.7127,168.525 87,171.5C 84.1347,169.485 80.9681,168.152 77.5,167.5C 77.5,166.167 77.5,164.833 77.5,163.5C 70.2873,162.922 63.2873,163.588 56.5,165.5C 53.7681,163.592 50.9347,162.925 48,163.5C 45.2733,160.943 42.7733,158.277 40.5,155.5C 43.1922,156.009 45.6922,157.009 48,158.5C 48.414,158.043 48.914,157.709 49.5,157.5C 52.9549,158.767 56.4549,159.767 60,160.5C 61.8647,158.327 64.0314,157.993 66.5,159.5C 67.6667,157.833 68.8333,156.167 70,154.5C 70.3333,154.833 70.6667,155.167 71,155.5C 71.3333,152.833 71.6667,150.167 72,147.5C 74.0931,152.569 77.5931,156.235 82.5,158.5C 87.1304,157.737 89.1304,155.237 88.5,151C 89.9557,149.255 91.289,147.422 92.5,145.5C 97.4906,149.658 101.991,154.325 106,159.5C 107.356,158.62 108.856,158.286 110.5,158.5C 110.313,152.135 107.98,146.801 103.5,142.5C 101.5,139.5 99.5,136.5 97.5,133.5C 102.672,131.272 107.672,128.106 112.5,124C 110.935,122.494 110.601,120.994 111.5,119.5 Z"/></g>
</svg>
